<?xml version="1.0" encoding="utf-8"?>
<svg id="master-artboard" viewBox="0 0 1400 980" version="1.1" xmlns="http://www.w3.org/2000/svg" x="0px" y="0px" style="enable-background:new 0 0 336 235.2;" width="1400px" height="980px" xmlns:xlink="http://www.w3.org/1999/xlink"><defs><linearGradient id="id0" gradientUnits="userSpaceOnUse" x1="1.89176" y1="2.36224" x2="2.89301" y2="2.36224">
   <stop offset="0" style="stop-color:#321B71"/>
   <stop offset="1" style="stop-color:#3093B0"/>
  </linearGradient><linearGradient id="id1" gradientUnits="userSpaceOnUse" x1="1.9771" y1="5.09211" x2="2.81103" y2="5.09211" xlink:href="#id0">
  </linearGradient><linearGradient id="id2" gradientUnits="userSpaceOnUse" x1="3.42154" y1="2.36045" x2="4.81708" y2="2.36045" xlink:href="#id0">
  </linearGradient><linearGradient id="id3" gradientUnits="userSpaceOnUse" x1="2.45025" y1="1.20224" x2="4.26975" y2="1.20224" xlink:href="#id0">
  </linearGradient><linearGradient id="id4" gradientUnits="userSpaceOnUse" x1="1.45538" y1="3.50371" x2="5.26462" y2="3.50371" xlink:href="#id0">
  </linearGradient></defs><g transform="matrix(145.83333788646607, 0, 0, 145.83333788646607, 210.00001360040642, -9.439437462788192e-7)"><g id="Layer_x0020_1">
  <metadata id="CorelCorpID_0Corel-Layer"/>
  <path class="fil0" d="M1.53538 1.08743l0.99487 0c0.0441811,0 0.08,0.0358189 0.08,0.08l0 0.277043 1.4995 0 0 -0.277043c0,-0.0441811 0.0358189,-0.08 0.08,-0.08l0.99487 0c0.0441811,0 0.08,0.0358189 0.08,0.08l0 4.67257c0,0.0441811 -0.0358189,0.08 -0.08,0.08l-3.64924 0c-0.0441811,0 -0.08,-0.0358189 -0.08,-0.08l0 -4.67257c0,-0.0441811 0.0358189,-0.08 0.08,-0.08zm0.91487 0.16l-0.83487 0 0 4.51257 3.48924 0 0 -4.51257 -0.83487 0 0 0.277043c0,0.0441811 -0.0358189,0.08 -0.08,0.08l-1.6595 0c-0.0441811,0 -0.08,-0.0358189 -0.08,-0.08l0 -0.277043z" style="fill: rgb(4, 4, 4); fill-rule: nonzero;"/>
  <path class="fil1" d="M2.05198 2.30565c-0.0220906,-0.0381417 -0.0709213,-0.0511535 -0.109063,-0.029063 -0.0381417,0.0220906 -0.0511535,0.0709213 -0.029063,0.109063l0.190783 0.330445 -0.000165354 9.44882e-005c0.0220906,0.0382638 0.0710197,0.051374 0.109283,0.0292835 0.00679528,-0.0039252 0.0127953,-0.00869685 0.0179488,-0.0141063l0.630071 -0.630071c0.0312362,-0.0312362 0.0312362,-0.0818898 0,-0.113126 -0.0312362,-0.0312362 -0.0818898,-0.0312362 -0.113126,0l-0.557874 0.557874 -0.138795 -0.240394z" style="fill: rgb(4, 4, 4); fill-rule: nonzero;"/>
  <path class="fil1" d="M2.05198 3.59958c-0.0220906,-0.0381417 -0.0709213,-0.0511535 -0.109063,-0.029063 -0.0381417,0.0220906 -0.0511535,0.0709213 -0.029063,0.109063l0.190783 0.330445 -0.000165354 9.44882e-005c0.0220906,0.0382638 0.0710197,0.051374 0.109283,0.0292835 0.00679528,-0.0039252 0.0127953,-0.00869685 0.0179488,-0.0141063l0.630071 -0.630071c0.0312362,-0.0312362 0.0312362,-0.0818898 0,-0.113126 -0.0312362,-0.0312362 -0.0818898,-0.0312362 -0.113126,0l-0.557874 0.557874 -0.138795 -0.240394z" style="fill: rgb(4, 4, 4); fill-rule: nonzero;"/>
  <path class="fil2" d="M2.0571 4.67515l0.673929 0c0.0441811,0 0.08,0.0358189 0.08,0.08l0 0.673929c0,0.0441811 -0.0358189,0.08 -0.08,0.08l-0.673929 0c-0.0441811,0 -0.08,-0.0358189 -0.08,-0.08l0 -0.673929c0,-0.0441811 0.0358189,-0.08 0.08,-0.08zm0.593929 0.16l-0.513929 0 0 0.513929 0.513929 0 0 -0.513929z" style="fill: rgb(3, 3, 3); fill-rule: nonzero;"/>
  <path class="fil3" d="M3.50154 2.28045c-0.0441811,0 -0.08,0.0358189 -0.08,0.08 0,0.0441811 0.0358189,0.08 0.08,0.08l1.23554 0c0.0441811,0 0.08,-0.0358189 0.08,-0.08 0,-0.0441811 -0.0358189,-0.08 -0.08,-0.08l-1.23554 0z" style="fill: rgb(3, 3, 3); fill-rule: nonzero;"/>
  <path class="fil3" d="M3.50154 3.57439c-0.0441811,0 -0.08,0.0358189 -0.08,0.08 0,0.0441811 0.0358189,0.08 0.08,0.08l1.23554 0c0.0441811,0 0.08,-0.0358189 0.08,-0.08 0,-0.0441811 -0.0358189,-0.08 -0.08,-0.08l-1.23554 0z" style="fill: rgb(6, 6, 6); fill-rule: nonzero;"/>
  <path class="fil3" d="M3.50154 5.01211c-0.0441811,0 -0.08,0.0358189 -0.08,0.08 0,0.0441811 0.0358189,0.08 0.08,0.08l1.23554 0c0.0441811,0 0.08,-0.0358189 0.08,-0.08 0,-0.0441811 -0.0358189,-0.08 -0.08,-0.08l-1.23554 0z" style="fill: rgb(7, 7, 7); fill-rule: nonzero;"/>
  <path class="fil4" d="M2.53025 0.8l1.6595 0c0.0441811,0 0.08,0.0358189 0.08,0.08l0 0.644472c0,0.0441811 -0.0358189,0.08 -0.08,0.08l-1.6595 0c-0.0441811,0 -0.08,-0.0358189 -0.08,-0.08l0 -0.644472c0,-0.0441811 0.0358189,-0.08 0.08,-0.08zm1.5795 0.16l-1.4995 0 0 0.484472 1.4995 0 0 -0.484472z" style="fill: rgb(7, 7, 7); fill-rule: nonzero;"/>
 <path d="M 1.5387159585952759 2.742976665496826 L 1.5387159585952759 2.742976665496826" style="fill: rgb(3, 3, 3); fill-opacity: 1; stroke: rgb(0, 0, 0); stroke-opacity: 1; stroke-width: 0; paint-order: fill;"/></g><path d="M 0 0 H 6.72 V 6.72 H 0 V 0 Z" class="fil5" style="fill: none;"/></g><path d="M 432.9013977050781 464.29058837890625" style="fill: rgb(3, 3, 3); fill-opacity: 0; stroke: rgb(0, 0, 0); stroke-opacity: 1; stroke-width: 1; paint-order: stroke;"/></svg>